<svg xmlns="http://www.w3.org/2000/svg" width="1840" height="1120" viewBox="0 0 1840 1120">
  <defs>
    <linearGradient id="wall" x1="0" x2="1" y1="0" y2="1"><stop stop-color="#aee9ff"/><stop offset=".22" stop-color="#09151c"/><stop offset=".48" stop-color="#6ec7e1"/><stop offset=".72" stop-color="#071016"/><stop offset="1" stop-color="#b6f1ff"/></linearGradient>
    <linearGradient id="acrylic" x1="0" x2="1" y1="0" y2="1"><stop stop-color="#0b5c7a" stop-opacity=".92"/><stop offset=".45" stop-color="#202020" stop-opacity=".88"/><stop offset="1" stop-color="#171717" stop-opacity=".94"/></linearGradient>
    <radialGradient id="glow" cx="44%" cy="58%" r="68%"><stop stop-color="#9fc6ce" stop-opacity=".54"/><stop offset=".55" stop-color="#104759" stop-opacity=".22"/><stop offset="1" stop-color="#0b0b0b" stop-opacity=".18"/></radialGradient>
    <pattern id="noise" width="8" height="8" patternUnits="userSpaceOnUse"><circle cx="1" cy="2" r=".5" fill="#fff" opacity=".09"/><circle cx="5" cy="6" r=".5" fill="#000" opacity=".11"/></pattern>
    <style>
      .ui{font-family:'Segoe UI',Arial,sans-serif}.light{font-family:'Segoe UI Light','Segoe UI',Arial,sans-serif}.t{fill:#f3f3f3}.s{fill:#c9d3d8}.b{font-weight:700}.sb{font-weight:600}.line{stroke:#050505;stroke-width:2}.grid{stroke:#050505;stroke-width:1.6}.muted{fill:#aeb7bc}.accent{fill:#0078d7}
    </style>
  </defs>
  <rect width="1840" height="1120" fill="url(#wall)"/>
  <path d="M0 0 L300 250 M360 0 L690 330 M1240 0 L1520 300 M1680 0 L1840 250" stroke="#020508" stroke-width="16" opacity=".92"/>
  <rect x="1" y="130" width="1838" height="990" rx="11" fill="#141515" stroke="#444"/>
  <rect x="1" y="130" width="340" height="990" fill="url(#acrylic)"/>
  <rect x="1" y="130" width="340" height="990" fill="url(#glow)"/><rect x="1" y="130" width="340" height="990" fill="url(#noise)"/>
  <rect x="341" y="130" width="1498" height="138" fill="#202020"/>
  <g class="ui t"><circle cx="16" cy="145" r="7" fill="#666"/><circle cx="39" cy="145" r="7" fill="#666"/><circle cx="62" cy="145" r="7" fill="#666"/><text x="86" y="150" font-size="13" class="sb" fill="#8e8e8e">Calendar</text></g>
  <text x="24" y="188" class="ui t sb" font-size="16">Calendar</text><text x="22" y="238" class="ui t" font-size="30">☰</text><text x="25" y="296" class="ui t b" font-size="25">+ New event</text>
  <text x="30" y="358" class="ui t sb" font-size="20">June 2026</text>
  <g class="ui t sb" font-size="14"><text x="34" y="396">Sun</text><text x="75" y="396">Mon</text><text x="118" y="396">Tue</text><text x="160" y="396">Wed</text><text x="203" y="396">Thu</text><text x="246" y="396">Fri</text><text x="286" y="396">Sat</text></g>
  <g class="ui t sb" font-size="16"><rect x="72" y="415" width="28" height="24" class="accent"/><text x="82" y="433">1</text><text x="122" y="433">2</text><text x="164" y="433">3</text><text x="207" y="433">4</text><text x="250" y="433">5</text><text x="290" y="433">6</text><text x="39" y="462">7</text><text x="80" y="462">8</text><text x="122" y="462">9</text><text x="158" y="462">10</text><text x="202" y="462">11</text><text x="245" y="462">12</text><text x="286" y="462">13</text><text x="35" y="492">14</text><text x="76" y="492">15</text><text x="118" y="492">16</text><text x="160" y="492">17</text><text x="202" y="492">18</text><text x="244" y="492">19</text><text x="286" y="492">20</text><text x="35" y="522">21</text><text x="76" y="522">22</text><text x="118" y="522">23</text><text x="160" y="522">24</text><text x="202" y="522">25</text><text x="244" y="522">26</text><text x="286" y="522">27</text><text x="35" y="552">28</text><text x="76" y="552">29</text><text x="118" y="552">30</text></g>
  <g class="ui t" font-size="24"><text x="22" y="1092">✉</text><text x="92" y="1092">▣</text><text x="164" y="1092">♙</text><text x="230" y="1092">✓</text><text x="296" y="1092">⚙</text></g>
  <text x="374" y="220" class="ui muted" font-size="46">↑ ↓</text><text x="452" y="220" class="light" font-size="32" fill="#0788f5">June 2026</text>
  <g class="ui t sb" font-size="18"><text x="1390" y="218">▣ Day</text><text x="1500" y="218">▣ Week</text><text x="1618" y="218">▣ Month</text><text x="1736" y="218">▣ Year</text></g>
  <g class="ui t sb" font-size="18"><text x="354" y="288">Sun</text><text x="568" y="288">Mon</text><text x="782" y="288">Tue</text><text x="996" y="288">Wed</text><text x="1210" y="288">Thu</text><text x="1424" y="288">Fri</text><text x="1638" y="288">Sat</text></g>
  <g class="grid" opacity=".95"><path d="M341 300 H1839 M341 438 H1839 M341 576 H1839 M341 714 H1839 M341 850 H1839 M341 986 H1839"/><path d="M555 268 V1120 M769 268 V1120 M983 268 V1120 M1197 268 V1120 M1411 268 V1120 M1625 268 V1120"/></g>
  <g class="ui t b" font-size="24"><text x="566" y="334">1</text><text x="780" y="334">2</text><text x="994" y="334">3</text><text x="1208" y="334">4</text><text x="1422" y="334">5</text><text x="1636" y="334">6</text><text x="352" y="472">7</text><text x="566" y="472">8</text><text x="780" y="472">9</text><text x="994" y="472">10</text><text x="1208" y="472">11</text><text x="1422" y="472">12</text><text x="1636" y="472">13</text><text x="352" y="610">14</text><text x="566" y="610">15</text><text x="780" y="610">16</text><text x="994" y="610">17</text><text x="1208" y="610">18</text><text x="1422" y="610">19</text><text x="1636" y="610">20</text><text x="352" y="748">21</text><text x="566" y="748">22</text><text x="780" y="748">23</text><text x="994" y="748">24</text><text x="1208" y="748">25</text><text x="1422" y="748">26</text><text x="1636" y="748">27</text><text x="352" y="884">28</text><text x="566" y="884">29</text><text x="780" y="884">30</text></g>
  <rect x="555" y="302" width="214" height="136" fill="#0078d7" opacity=".94" stroke="#0289ed" stroke-width="3"/><text x="566" y="334" class="ui t b" font-size="24">1</text><rect x="566" y="354" width="4" height="12" fill="#c2f2ff"/><text x="578" y="364" class="ui t sb" font-size="13">Международный день защ...</text>
  <rect x="1010" y="2" width="460" height="820" fill="#202020" stroke="#6e6e6e"/><rect x="1010" y="2" width="460" height="820" fill="url(#acrylic)" opacity=".72"/><rect x="1010" y="2" width="460" height="820" fill="url(#noise)"/>
  <text x="1043" y="73" class="light t" font-size="55">20:30:29</text><text x="1043" y="113" class="ui s" font-size="20">Monday, June 1, 2026</text><line x1="1010" y1="130" x2="1470" y2="130" stroke="#3a3a3a"/>
  <text x="1042" y="172" class="ui t b" font-size="22">July 2026</text><text x="1285" y="174" class="ui t sb" font-size="14">Today</text><text x="1360" y="174" class="ui t" font-size="24">⌃</text><text x="1408" y="174" class="ui t" font-size="24">⌄</text>
  <g class="ui t b" font-size="18"><text x="1068" y="222">S</text><text x="1125" y="222">M</text><text x="1181" y="222">T</text><text x="1236" y="222">W</text><text x="1292" y="222">T</text><text x="1348" y="222">F</text><text x="1405" y="222">S</text></g>
  <g stroke="#2e2e2e"><path d="M1044 240 H1436 M1044 282 H1436 M1044 324 H1436 M1044 366 H1436 M1044 408 H1436 M1044 450 H1436 M1044 491 H1436"/><path d="M1044 240 V491 M1100 240 V491 M1156 240 V491 M1212 240 V491 M1268 240 V491 M1324 240 V491 M1380 240 V491 M1436 240 V491"/></g>
  <g class="ui t b" font-size="18"><rect x="1219" y="242" width="42" height="38" class="accent"/><text x="1236" y="266">1</text><text x="1292" y="266">2</text><text x="1348" y="266">3</text><text x="1405" y="266">4</text><text x="1068" y="308">5</text><text x="1124" y="308">6</text><text x="1180" y="308">7</text><text x="1236" y="308">8</text><text x="1292" y="308">9</text><text x="1342" y="308">10</text><text x="1398" y="308">11</text><text x="1062" y="350">12</text><text x="1118" y="350">13</text><text x="1174" y="350">14</text><text x="1230" y="350">15</text><text x="1286" y="350">16</text><text x="1342" y="350">17</text><text x="1398" y="350">18</text></g>
  <line x1="1010" y1="510" x2="1470" y2="510" stroke="#3a3a3a"/><text x="1042" y="554" class="ui t b" font-size="24">Wednesday, July 1</text><rect x="1042" y="576" width="396" height="38" fill="none" stroke="#aaa" stroke-width="2"/><text x="1054" y="600" class="ui s sb" font-size="16">Add an event or reminder</text><text x="1042" y="650" class="ui t b" font-size="18">No events</text><text x="1420" y="796" class="ui t" font-size="24">⚙</text>
</svg>
