<svg xmlns="http://www.w3.org/2000/svg" width="1080" height="640" viewBox="0 0 1080 640">
  <rect width="1080" height="640" fill="#111315"/>
  <rect x="64" y="54" width="470" height="532" fill="#262626" stroke="#fff" stroke-opacity=".14"/>
  <text x="96" y="104" fill="#fff" font-family="Segoe UI, Arial" font-size="26" font-weight="700">Acrylic Calendar Settings</text>
  <text x="96" y="160" fill="#dcdcdc" font-family="Segoe UI, Arial" font-size="18">Theme</text><rect x="246" y="136" width="230" height="32" fill="#1b1b1b" stroke="#fff" stroke-opacity=".18"/><text x="260" y="158" fill="#fff" font-family="Segoe UI, Arial" font-size="16">Dark mode</text>
  <text x="96" y="210" fill="#dcdcdc" font-family="Segoe UI, Arial" font-size="18">Language</text><rect x="246" y="186" width="230" height="32" fill="#1b1b1b" stroke="#fff" stroke-opacity=".18"/><text x="260" y="208" fill="#fff" font-family="Segoe UI, Arial" font-size="16">Русский</text>
  <text x="96" y="260" fill="#dcdcdc" font-family="Segoe UI, Arial" font-size="18">Show date</text><rect x="246" y="236" width="230" height="32" fill="#1b1b1b" stroke="#fff" stroke-opacity=".18"/><text x="260" y="258" fill="#fff" font-family="Segoe UI, Arial" font-size="16">When space allows</text>
  <rect x="246" y="300" width="18" height="18" fill="#0078d7"/><text x="276" y="316" fill="#fff" font-family="Segoe UI, Arial" font-size="16">Add to login items</text>
  <rect x="246" y="350" width="180" height="36" fill="#333" stroke="#fff" stroke-opacity=".18"/><text x="270" y="374" fill="#fff" font-family="Segoe UI, Arial" font-size="16">About Acrylic calendar</text>
  <rect x="590" y="126" width="430" height="330" fill="#1e2a31" stroke="#fff" stroke-opacity=".18"/>
  <rect x="632" y="176" width="92" height="92" fill="#0078d7"/><rect x="646" y="196" width="64" height="56" fill="none" stroke="#fff" stroke-width="4"/><line x1="646" y1="214" x2="710" y2="214" stroke="#fff" stroke-width="4"/>
  <text x="748" y="204" fill="#fff" font-family="Segoe UI Light, Segoe UI, Arial" font-size="34">Acrylic calendar</text>
  <text x="750" y="242" fill="#cfd8df" font-family="Segoe UI, Arial" font-size="19">DurkaEbanaya</text>
  <text x="750" y="292" fill="#fff" font-family="Segoe UI, Arial" font-size="17">Version 1.0</text>
  <text x="750" y="320" fill="#cfd8df" font-family="Segoe UI, Arial" font-size="17">2026</text>
  <text x="632" y="398" fill="#77caff" font-family="Segoe UI, Arial" font-size="17">github.com/DurkaEbanaya/Acrylic-calendar/releases</text>
</svg>
