<svg xmlns="http://www.w3.org/2000/svg" width="1840" height="996" viewBox="0 0 1840 996">
  <rect width="1840" height="996" rx="10" fill="#121314"/><rect width="60" height="996" fill="#777" opacity=".82"/><rect x="60" width="1780" height="138" fill="#202020"/>
  <style>.ui{font-family:'Segoe UI',Arial,sans-serif}.t{fill:#eee}.b{font-weight:700}.sb{font-weight:600}.muted{fill:#aaa}.accent{fill:#0078d7}</style>
  <g class="ui"><circle cx="16" cy="16" r="7" fill="#f33"/><circle cx="39" cy="16" r="7" fill="#777"/><circle cx="62" cy="16" r="7" fill="#777"/><text x="86" y="21" fill="#8e8e8e" font-size="13" class="sb">Calendar</text></g>
  <text x="22" y="112" class="ui t" font-size="28">☰</text><text x="22" y="170" class="ui t" font-size="30">+</text><text x="18" y="745" class="ui t" font-size="24">✉</text><text x="18" y="800" class="ui t" font-size="24">▣</text><text x="22" y="855" class="ui t" font-size="24">♙</text><text x="22" y="912" class="ui t" font-size="24">✓</text><text x="18" y="970" class="ui t" font-size="24">⚙</text>
  <text x="92" y="90" class="ui muted" font-size="45">↑ ↓</text><text x="172" y="90" fill="#0788f5" font-family="Segoe UI Light,Segoe UI,Arial" font-size="32">2026</text>
  <g class="ui t sb" font-size="18"><text x="1430" y="86">▣ Day</text><text x="1522" y="86">▣ Week</text><text x="1626" y="86">▣ Month</text><text x="1742" y="86">▣ Year</text></g><rect x="1732" y="60" width="86" height="3" class="accent"/>
  <g class="ui t b" font-size="23"><text x="140" y="216">January</text><text x="408" y="216">February</text><text x="678" y="216">March</text><text x="947" y="216">April</text><text x="1216" y="216">May</text><text x="1486" y="216">June</text><text x="140" y="600">July</text><text x="408" y="600">August</text><text x="678" y="600">September</text><text x="947" y="600">October</text><text x="1216" y="600">November</text><text x="1486" y="600">December</text></g>
  <g class="ui t sb" font-size="18">
    <g id="m"><text x="154" y="244">S</text><text x="189" y="244">M</text><text x="224" y="244">T</text><text x="259" y="244">W</text><text x="294" y="244">T</text><text x="329" y="244">F</text><text x="364" y="244">S</text><text x="294" y="272">1</text><text x="329" y="272">2</text><text x="364" y="272">3</text><text x="154" y="300">4</text><text x="189" y="300">5</text><text x="224" y="300">6</text><text x="259" y="300">7</text><text x="294" y="300">8</text><text x="329" y="300">9</text><text x="359" y="300">10</text><text x="149" y="328">11</text><text x="184" y="328">12</text><text x="219" y="328">13</text><text x="254" y="328">14</text><text x="289" y="328">15</text><text x="324" y="328">16</text><text x="359" y="328">17</text><text x="149" y="356">18</text><text x="184" y="356">19</text><text x="219" y="356">20</text><text x="254" y="356">21</text><text x="289" y="356">22</text><text x="324" y="356">23</text><text x="359" y="356">24</text><text x="149" y="384">25</text><text x="184" y="384">26</text><text x="219" y="384">27</text><text x="254" y="384">28</text><text x="289" y="384">29</text><text x="324" y="384">30</text><text x="359" y="384">31</text></g>
    <use href="#m" transform="translate(268 0)"/><use href="#m" transform="translate(538 0)"/><use href="#m" transform="translate(807 0)"/><use href="#m" transform="translate(1076 0)"/><use href="#m" transform="translate(1346 0)"/>
    <use href="#m" transform="translate(0 384)"/><use href="#m" transform="translate(268 384)"/><use href="#m" transform="translate(538 384)"/><use href="#m" transform="translate(807 384)"/><use href="#m" transform="translate(1076 384)"/><use href="#m" transform="translate(1346 384)"/>
  </g>
  <rect x="1525" y="257" width="26" height="26" class="accent"/><text x="1535" y="277" class="ui t b" font-size="17">1</text>
</svg>
