<svg xmlns="http://www.w3.org/2000/svg" width="1280" height="720" viewBox="0 0 1280 720">
  <rect width="1280" height="720" fill="#121314"/>
  <rect width="272" height="720" fill="#777" opacity="0.78"/>
  <rect x="272" width="1008" height="108" fill="#202020"/>
  <text x="32" y="50" fill="#fff" font-family="Segoe UI, Arial" font-size="18" font-weight="600">Calendar</text>
  <text x="32" y="138" fill="#fff" font-family="Segoe UI, Arial" font-size="28" font-weight="700">+ New event</text>
  <text x="32" y="198" fill="#fff" font-family="Segoe UI, Arial" font-size="22" font-weight="600">June 2026</text>
  <text x="300" y="74" fill="#8f8f8f" font-family="Segoe UI, Arial" font-size="44">↑ ↓</text>
  <text x="405" y="74" fill="#0078d7" font-family="Segoe UI Light, Segoe UI, Arial" font-size="44">2026</text>
  <text x="944" y="70" fill="#fff" font-family="Segoe UI, Arial" font-size="20" font-weight="600">▣ Day</text>
  <text x="1024" y="70" fill="#fff" font-family="Segoe UI, Arial" font-size="20" font-weight="600">▣ Week</text>
  <text x="1124" y="70" fill="#fff" font-family="Segoe UI, Arial" font-size="20" font-weight="600">▣ Month</text>
  <rect x="1200" y="48" width="62" height="3" fill="#0078d7"/>
  <text x="1200" y="70" fill="#fff" font-family="Segoe UI, Arial" font-size="20" font-weight="600">▣ Year</text>
  <g fill="#fff" font-family="Segoe UI, Arial">
    <text x="336" y="176" font-size="22" font-weight="700">January</text>
    <text x="484" y="176" font-size="22" font-weight="700">February</text>
    <text x="644" y="176" font-size="22" font-weight="700">March</text>
    <text x="792" y="176" font-size="22" font-weight="700">April</text>
    <text x="940" y="176" font-size="22" font-weight="700">May</text>
    <text x="1088" y="176" font-size="22" font-weight="700">June</text>
    <text x="336" y="438" font-size="22" font-weight="700">July</text>
    <text x="484" y="438" font-size="22" font-weight="700">August</text>
    <text x="644" y="438" font-size="22" font-weight="700">September</text>
    <text x="792" y="438" font-size="22" font-weight="700">October</text>
    <text x="940" y="438" font-size="22" font-weight="700">November</text>
    <text x="1088" y="438" font-size="22" font-weight="700">December</text>
  </g>
  <g font-family="Segoe UI, Arial" font-size="15" fill="#f4f4f4" font-weight="600">
    <g id="m"><text x="342" y="210">M</text><text x="372" y="210">T</text><text x="402" y="210">W</text><text x="432" y="210">T</text><text x="462" y="210">F</text><text x="492" y="210">S</text><text x="522" y="210">S</text><text x="432" y="238">1</text><text x="462" y="238">2</text><text x="492" y="238">3</text><text x="522" y="238">4</text><text x="342" y="266">5</text><text x="372" y="266">6</text><text x="402" y="266">7</text><text x="432" y="266">8</text><text x="462" y="266">9</text><text x="488" y="266">10</text><text x="518" y="266">11</text><text x="338" y="294">12</text><text x="368" y="294">13</text><text x="398" y="294">14</text><text x="428" y="294">15</text><text x="458" y="294">16</text><text x="488" y="294">17</text><text x="518" y="294">18</text><text x="338" y="322">19</text><text x="368" y="322">20</text><text x="398" y="322">21</text><text x="428" y="322">22</text><text x="458" y="322">23</text><text x="488" y="322">24</text><text x="518" y="322">25</text></g>
    <use href="#m" transform="translate(148 0)"/><use href="#m" transform="translate(308 0)"/><use href="#m" transform="translate(456 0)"/><use href="#m" transform="translate(604 0)"/><use href="#m" transform="translate(752 0)"/>
    <use href="#m" transform="translate(0 262)"/><use href="#m" transform="translate(148 262)"/><use href="#m" transform="translate(308 262)"/><use href="#m" transform="translate(456 262)"/><use href="#m" transform="translate(604 262)"/><use href="#m" transform="translate(752 262)"/>
  </g>
  <rect x="1082" y="232" width="22" height="22" fill="#0078d7"/>
  <text x="1089" y="249" fill="#fff" font-family="Segoe UI, Arial" font-size="15" font-weight="600">1</text>
</svg>
